<mxfile host="app.diagrams.net" modified="2023-11-10T05:55:28.128Z" agent="Mozilla/5.0 (Windows NT 10.0; Win64; x64) AppleWebKit/537.36 (KHTML, like Gecko) Chrome/119.0.0.0 Safari/537.36 Edg/119.0.0.0" version="22.1.0" etag="l224TtCao2JxeYsl0-kQ" type="github">
  <diagram name="Page-1" id="iB3Y4Q2zjJ-DtzHWg7R_">
    <mxGraphModel>
      <root>
        <mxCell id="0" />
        <mxCell id="1" parent="0" />
      </root>
    </mxGraphModel>
  </diagram>
</mxfile>
